<?xml version="1.0" encoding="utf-8"?>
<!-- Generator: Adobe Illustrator 26.0.1, SVG Export Plug-In . SVG Version: 6.00 Build 0)  -->
<svg version="1.1" id="Calque_1" xmlns="http://www.w3.org/2000/svg" xmlns:xlink="http://www.w3.org/1999/xlink" x="0px" y="0px"
	 viewBox="0 0 2000 2000" style="enable-background:new 0 0 2000 2000;" xml:space="preserve">
<style type="text/css">
	.st0{fill:#FFFFFF;}
	.st1{fill:#293069;}
</style>
<g>
	<polygon class="st1" points="950.5,1233.6 950,1233.6 950,1233.3 	"/>
	<polygon class="st1" points="1100.9,1182.2 1100.1,1183.6 1100.1,1181.8 	"/>
	<polygon class="st1" points="950,1233.3 950.5,1233.6 950,1233.6 	"/>
	<polygon class="st1" points="1050,1233.3 1050,1233.6 1049.5,1233.6 	"/>
	<polygon class="st1" points="1100.9,1182.2 1100.1,1183.6 1100.1,1181.8 	"/>
	<polygon class="st1" points="1329.1,647.4 1329.1,934 1429.1,876.2 1529.1,818.5 1529.1,956.7 1429.1,1014.4 1329.1,1072.2 
		1229.1,1129.9 1229.1,566.9 1329.1,509.2 1429.1,451.4 1529.1,393.7 1529.1,531.9 1429.1,589.6 	"/>
	<g>
		<polygon class="st1" points="1050,1233.3 1050,1233.6 1049.5,1233.6 		"/>
		<polygon class="st1" points="1100.9,1182.2 1100.1,1183.6 1100.1,1181.8 		"/>
		<polygon class="st1" points="950,1233.3 950.5,1233.6 950,1233.6 		"/>
		<polygon class="st1" points="1050,1233.3 1050,1233.6 1049.5,1233.6 		"/>
		<polygon class="st1" points="1200.1,583.7 1200.1,1146.7 1100.1,1204.4 1100.1,1183.6 1100.9,1182.2 1100.1,1181.8 1100.1,779.6 
			1050,808.5 1050,1233.3 1049.5,1233.6 1000,1262.2 950.5,1233.6 950,1233.3 950,808.5 899.9,779.6 899.9,1204.4 799.9,1146.7 
			799.9,583.7 899.9,641.4 950,670.3 1000,699.2 1050,670.3 1100.1,641.4 		"/>
		<path class="st1" d="M670.9,509.2l-100-57.7l-100-57.7v563l100,57.7V806l100,57.7v208.5l100,57.7v-563L670.9,509.2z M670.9,725.5
			l-100-57.7v-78.1l100,57.7V725.5z"/>
	</g>
	<g>
		<g>
			<path class="st1" d="M994.2,1491.3c11.6-0.7,22.5,2.1,33,6c10.3,3.9,20.2,8.7,30.5,13.2c6.2-18.3,12.8-36.3,9.4-56.5
				c-7.4-0.1-13.3,3.5-19.1,6.8c-3.5,2-6.8,4.5-9.9,7.1c-2.4,2-4.3,2-6.8,0.3c-6.9-4.5-8-9.1-5.8-17c3.1-11.2,5.3-22.7,7.8-34.1
				c0.7-3-0.3-4.5-3.7-4.3c-11.3,0.7-22.7,1.2-34.1,1.8c-1,0-1.9,0.2-4.3,0.4c7.1-6.8,14.4-11,22-14.4c5.7-2.6,11.7-4.5,17.4-7.1
				c1.4-0.6,2.9-2.7,3-4.2c0.6-7.8,0.7-15.6,1-23.4c0.3-8.8-1.2-17.3-5.4-25.1c-0.8-1.5-1.3-3-2-4.6c18-3.3,33.9,4.2,32.6,22.6
				c-0.4,6.3-0.7,12.6-0.9,18.8c-0.1,2,0,4,0,6.8c8.9-1.8,17.3-3.4,25.6-5.2c9.5-2,18.1-0.7,26.1,5.1c3.1,2.2,3.4,4.8,0.7,6.4
				c-4,2.5-8.6,4.6-13.1,5.6c-12.6,2.8-25.3,4.8-38,7.3c-1.5,0.3-3.9,1.7-4.1,2.8c-1.6,11.4-2.8,22.8-4.1,33.8
				c6.6-1.1,13.2-2.9,19.8-3.1c14.6-0.3,25.1,11.5,22.2,25.7c-3.6,17.8-8.3,35.3-13.1,52.8c-1.5,5.4-1.2,8.2,4.1,11.3
				c15.1,8.9,28.8,19.8,40.3,33.1c3,3.5,5.7,7.6,7.4,11.9c2.3,5.9-1.5,11.4-7.8,11.2c-4.8-0.1-9.7-1.3-14.3-2.9
				c-9.8-3.3-19.5-7-30.2-6.2c-0.7,0.1-1.5-0.5-2.1-0.7c4.9-2.2,9.7-4.4,13.4-6.1c-7.7-8.8-15-17.2-22.8-26.2
				c-13.2,17.2-28.4,27.6-49.2,27.4c-14.4-0.2-27.5-4.9-40.1-12c28.7,4.4,51-6.4,69.2-28.7
				C1031.7,1514.2,1013.2,1502.4,994.2,1491.3z"/>
			<path class="st1" d="M928.3,1436.4c-30.2,2.3-39.2,1.7-47-3.1c9.1-3.5,18.2-7,27.2-10.7c5.2-2.1,10.1-4.9,15.3-7.1
				c3.6-1.5,4.9-3.8,4.9-7.8c0.1-23.8,0.6-47.6,0.9-71.4c0-0.7,0.1-1.3,0.2-2c13.6,2.9,26.6,18.3,26.4,32.4
				c-0.2,8.9-1.9,17.9-2.9,26.8c-0.3,2.3-0.4,4.6-0.6,7.1c12.7-2.5,19.4,0.1,24.3,9.1c-4.8,7.9-13.2,10.5-21,13.4
				c-5.8,2.2-8.5,5.1-8.5,11.2c0,5.4-0.7,10.8-1,16.2c0.4,0.3,0.8,0.5,1.2,0.8c6.2-5.4,12.5-10.8,18.7-16.2c0.6,0.4,1.2,0.7,1.8,1.1
				c-3,7.6-5.6,15.4-9.2,22.7c-3.4,6.6-8.2,12.5-11.9,18.9c-1.4,2.4-2.7,5.7-2.3,8.3c4,28.1,8.3,56.1,12.6,84.1
				c0.2,1.5,0.6,3,0.7,4.5c0.4,5.6,0.4,11.1-5.7,14c-5.6,2.7-10.2,1.9-15.6-3.6c-6-6.2-11.5-12.9-17.4-19.3
				c-9.9-10.6-18.5-22.8-31.6-30.1c-5.8-3.2-11.7-6.3-17.7-8.8c-3.4-1.4-4.1-3.4-2.3-5.7c4.2-5.5,8.2-11.3,13.4-15.6
				c14.5-12,29.6-23.3,44.3-35c1.7-1.3,3-4.1,3.1-6.3C928.5,1455,928.3,1445.9,928.3,1436.4z M926.4,1495.5
				c-13.8,10.7-27.2,21-40.6,31.4c0.1,0.6,0.1,1.3,0.2,1.9c13,6.5,26,13,40.4,20.2C926.4,1530.5,926.4,1513.8,926.4,1495.5z"/>
		</g>
		<g>
			<path class="st1" d="M525.2,1430.9c14.1,4.8,24.5,12.6,30.8,24.5c4.5,8.5,7.4,18,10.2,27.3c5.6,18.5,13.3,35.8,27.2,49.7
				c15.5,15.5,34.9,22.2,56.3,23.4c10.9,0.6,22-0.3,33-0.7c4.7-0.2,5.7-2.4,3.2-6.5c-19.1-30.5-40.6-59.2-66.8-84.2
				c-2.6-2.5-4.1-2.1-6.8-0.4c-12.5,7.8-20.5,5-25-9.1c-4-12.4-5.1-25,0.3-38.8c3.2,3.5,5.6,6.2,8,8.9c6,6.7,13.1,10.1,22.2,7.8
				c7-1.8,14.2-3.4,21-6c24-9.2,48.8-12.5,74.2-9.9c12.6,1.3,25.1,4.1,35.4,12.4c4.1,3.3,6.4,7.5,4.8,12.6
				c-1.6,5.1-6.5,5.8-11.3,6.1c-21.4,1.2-42.1,5.1-61.4,14.8c-4.2,2.1-8.2,4.5-12.2,6.7c10.7-11.7,21.5-23.4,32.1-35
				c-12.7-12.5-61.6,1.8-79.5,24.5c10.9,9.4,21.5,19.3,32.8,28.3c22.1,17.6,44.9,34.3,66.8,52.1c7.4,6,13.9,13.8,19.3,21.7
				c7,10.2,3.9,18.2-7.5,22.6c-16.7,6.5-34.2,6.5-51.7,6.4c-28.7-0.1-56.2-5-81.5-19.6c-20.6-11.9-34.7-29.4-45.2-50.1
				c-11-21.8-19.8-44.4-25.2-68.2C527.2,1445.5,526.5,1438.7,525.2,1430.9z"/>
			<path class="st1" d="M511.3,1506.6c-2.1,9.2-4.8,18.4-6.3,27.8c-2.2,13.5-3.5,27.2-5.4,40.7c-0.6,4.6-0.6,10.1-6.5,11.6
				c-6.3,1.5-10.6-2.1-14.1-6.9c-10.5-14.5-9.2-30.7-5.7-46.7c3.2-14.7,8.2-29.1,12.3-43.6c0.8-0.1,1.6-0.2,2.5-0.3
				c4.1,11.5,8.3,23,12.7,35.4c3.3-6.3,6.5-12.2,9.7-18.2C510.8,1506.4,511.1,1506.5,511.3,1506.6z"/>
		</g>
		<g>
			<g>
				<path class="st1" d="M1452.1,1506.2c7-1.2,13.4-2.4,19.8-3.5c-14.7-11.8-30.7-19.8-47.7-26.2c0,11.4,0,22,0,33.4
					c3.3-0.8,5.8-1,7.9-1.9c8.5-3.8,15.3,1,22.3,4.2c1.7,0.8,3.2,3.9,3.1,5.8c0,1.4-2.7,3.4-4.5,3.9c-7.2,2-14.6,3.7-22,5
					c-4.1,0.7-5.7,2-5.7,6.5c0.1,19.2-0.2,38.4-0.5,57.6c-0.1,3.6-0.7,7.2-1.4,10.7c-0.9,4.9-3.4,6-7,2.5c-3.8-3.8-7-8.3-10-12.9
					c-2.4-3.5-4-7.5-6-11.3c-3.4-6.5-4.2-13-2.3-20.3c1.8-7.3,2.4-14.8,3.4-22.3c0.4-3.1-0.7-4.5-4.3-4.6c-10.5-0.1-20-3.5-30.2-9.6
					c6.2-1.6,11-2.9,15.9-4.1c5.3-1.3,10.7-2.4,16.1-3.5c2.8-0.5,4-1.8,4.1-4.8c0.2-13,0.7-26,0.9-39.1c0-1.3-1.7-3.6-2.8-3.8
					c-1.7-0.3-4.3,0.3-5.5,1.5c-8.9,8.9-17.1,18.7-26.5,27.1c-11.6,10.3-25.1,17.3-41.3,17.2c-1.2,0-2.4-0.1-3.6-0.2
					c-0.3,0-0.5-0.4-0.9-0.8c27.2-20.4,47.8-46.7,66.5-74.6c1.3-1.9,2.4-4,3.9-6.3c-13.9,0.8-27.1,1.5-40.3,2.3
					c-0.2-0.5-0.4-1.1-0.6-1.6c3.4-2,6.5-4.5,10.1-6c11.9-5.1,24-10.1,36.1-14.7c3.9-1.4,5.2-3,4.9-7.3c-1.2-16.9-1.5-33.9-3.1-50.8
					c-0.6-6.6-3.6-13-5.5-19.4c19.5-1.1,36.5,15.7,35,34.8c-0.8,9.9-2.2,19.7-3.3,29.6c-0.1,1.3,0,2.6,0,4.2c6.9-0.9,13.4-2,20-2.7
					c9.3-0.9,18.1,1.2,26.3,5.5c2.1,1.1,4.1,2.5,5.7,4.2c3.3,3.5,2.5,7.2-2.1,8c-8.2,1.4-16.6,1.8-24.9,2.7
					c-7.8,0.8-15.6,1.7-23.5,2.5c-3.1,0.3-4.4,1.7-4.3,5c0.2,9.8,0.1,19.6,0,29.3c0,3,1.1,4.3,4.1,5.3c29,9.6,57.6,20,83.5,36.4
					c5.5,3.5,10.1,8.7,14.5,13.5c1.8,1.9,2.7,5.2,2.8,7.9c0.2,5.2-2.8,7.8-7.9,6.8c-4.8-1-9.7-2.4-14.2-4.4
					c-16.8-7.4-34-13.6-52.3-16.1C1454,1507,1453.3,1506.6,1452.1,1506.2z"/>
				<path class="st1" d="M1309.6,1353.1c10.3,4,18.7,8.4,25,16c5.4,6.4,4.6,13.5,1.6,20.4c-13.9,32.9-30.3,64.3-53.8,91.6
					c-8.7,10.1-18.7,18.4-31.3,23.4c-1.2,0.5-2.4,0.7-4.4,1.3c6.5-9.2,12.8-17.5,18.5-26.2c18.8-28.3,32.7-58.9,42.8-91.2
					c1.2-3.8,2.2-7.6,3.5-11.3c2-5.8,2.2-11.3-0.6-16.9C1310.2,1358.4,1310.3,1356.3,1309.6,1353.1z"/>
			</g>
			<path class="st1" d="M1304.5,1461.1c7.3,9.7,10.5,20.9,12.3,33.6c5.1-10,10.3-19.9,15.4-29.9c0.3,0.1,0.5,0.2,0.8,0.3
				c-1.9,5.9-3.8,11.7-5.6,17.6c-6.6,22.4-10.5,45.3-13.4,68.4c-0.7,6.1-2,12.2-3.8,18c-1.9,6.3-8.4,8-12.7,3
				c-3.2-3.7-6.1-8.6-6.8-13.3c-2.5-15.7-1.5-31.5,1.3-47c3-17,6.8-33.8,10.3-50.7C1303,1461.2,1303.7,1461.1,1304.5,1461.1z"/>
		</g>
	</g>
</g>
</svg>
