<?xml version="1.0" encoding="utf-8"?>
<!-- Generator: Adobe Illustrator 25.3.1, SVG Export Plug-In . SVG Version: 6.00 Build 0)  -->
<svg version="1.1" id="Calque_1" xmlns="http://www.w3.org/2000/svg" xmlns:xlink="http://www.w3.org/1999/xlink" x="0px" y="0px"
	 viewBox="0 0 1000 509.9" style="enable-background:new 0 0 1000 509.9;" xml:space="preserve">
<style type="text/css">
	.st0{fill:#0A0096;}
</style>
<g>
	<polygon class="st0" points="350,211.1 391.8,211.1 391.8,186.4 350,186.4 350,170.1 396.6,170.1 396.6,144.2 322.5,144.2 
		322.5,242.8 350,242.8 	"/>
	<polygon class="st0" points="902.6,169.2 902.6,144.2 828.5,144.2 828.5,242.8 902.6,242.8 902.6,217.9 856,218 856,205.1 
		892.5,205.1 892.5,181.8 856,181.8 856,169.2 	"/>
	<polygon class="st0" points="642.5,188.3 681,242.8 708.6,242.8 708.6,144.2 681,144.2 681,199 642.3,144.2 614.9,144.2 
		614.9,242.8 642.5,242.8 	"/>
	<path class="st0" d="M563.2,272.9h-46.8v98.6h46.8c22.8,0,47.4-15.4,47.4-49.2C610.6,298.5,595.7,272.9,563.2,272.9z M561.6,346.7
		l-17.8,0.1v-48.9h17.8c12.4,0,19.8,9.4,19.8,25.1C581.5,339.4,571.5,346.7,561.6,346.7z"/>
	<path class="st0" d="M669.4,271.4c-29.3,0-51.5,21.9-51.5,50.9c0,29.5,21.7,50.9,51.5,50.9c29.8,0,51.5-21.4,51.5-50.9
		C721,293.2,698.8,271.4,669.4,271.4z M669.4,346.6c-13,0-22.4-10.3-22.4-24.4c0-14.1,9.4-24.4,22.4-24.4c13,0,22.4,10.3,22.4,24.4
		C691.9,336.4,682.4,346.6,669.4,346.6z"/>
	<path class="st0" d="M474.9,324.9c0,10-3.3,22-18.8,22c-15.2,0-18.4-12-18.4-22v-52h-27.8v53.9c0,21.4,12.1,46.3,46.3,46.3
		c28.3,0,46.5-18.2,46.5-46.3v-53.9h-27.8V324.9z"/>
	<path class="st0" d="M534.6,228.6h39.1l4.4,14.1h30.2l-36.9-98.6h-34.9L500,242.8l30.2,0L534.6,228.6z M556.3,173.2l10,31.9h-24.5
		l9.9-31.9L556.3,173.2L556.3,173.2z"/>
	<path class="st0" d="M437.4,214.1h4c7.8,18,26.8,28.7,54.4,28.7v-24c-11.8,0-22.4-1.9-28.5-7.3c15.2-4.9,23.9-16.5,23.9-33
		c0-21-15.4-34.3-37.3-34.3h-43.9v98.6h27.5V214.1z M437.4,167.2h11.2c9.5,0,14.3,4,14.3,11.9c0,7.7-5.1,11.9-14.3,11.9h-11.2V167.2
		z"/>
	<path class="st0" d="M792,200.4c-2.8,10.5-11.2,17.6-21,17.6c-12.3,0-21.9-10.8-21.9-24.5c0-13.9,9.4-24.5,21.9-24.5
		c11.3,0,18.7,9,21,18l0.4,1.4l24.7-15l-0.4-0.9c-8.3-18.4-25.8-29.9-45.6-29.9c-29.6,0-51,21.4-51,50.8c0,29.5,21.5,50.9,51,50.9
		c22,0,38.1-10.9,46.5-31.6l0.4-0.9l-25.7-12.8L792,200.4z"/>
	<path class="st0" d="M322.5,298.8l47.3,0c0,23-13.8,46-47.3,46v28.2c41.3,0,66.6-25,73-52.1c2.5-10.8,3-20.6,3-41v-7h-76
		L322.5,298.8L322.5,298.8z"/>
	<path class="st0" d="M120.4,100.6l-16.6,67.1c63.4-9.9,112.3,15.5,133.8,63.2l44-26.8C258.2,142,202.8,95.9,120.4,100.6z"/>
	<path class="st0" d="M174.2,259.4c15-9.3,34-1.1,39.5,26l40.1-24.4c-20.4-58.1-71.7-70-113.1-47.6c-40.5,21.9-48,70.5-35.2,114.6
		c9.9,34.2,35.7,67.1,55.8,81.7l55.4-36.5c-22.5-15.5-42.3-38.4-50.6-59C157.3,292.5,159.6,268.4,174.2,259.4z"/>
</g>
</svg>
