<?xml version="1.0" encoding="utf-8"?>
<!-- Generator: Adobe Illustrator 26.0.3, SVG Export Plug-In . SVG Version: 6.00 Build 0)  -->
<svg version="1.1" id="Calque_1" xmlns="http://www.w3.org/2000/svg" xmlns:xlink="http://www.w3.org/1999/xlink" x="0px" y="0px"
	 viewBox="0 0 278 182" style="enable-background:new 0 0 278 182;" xml:space="preserve">
<style type="text/css">
	.st0{fill-rule:evenodd;clip-rule:evenodd;fill:#FFCF0A;}
	.st1{fill-rule:evenodd;clip-rule:evenodd;fill:#088BCC;}
	.st2{fill-rule:evenodd;clip-rule:evenodd;fill:#FFFFFF;}
</style>
<g>
	<g id="trace_00000003098627043573598960000010981983001200347034_">
		<g id="trace_copy_3_00000059309269539404463960000004210179024857283200_">
			<g>
				<path class="st0" d="M259.5,110.2c-2.8,0.2-1.6-1.2-0.2-2c-0.7-0.5-51,7.6-58.9,7.3c-1.6-0.1-1.6-0.2-1.7-0.2
					c-1,0.3-12,1.9-13.9,1.7c-2.8,0.1-3.1-1.6-4.2-1.9c-6-0.2-15,2.2-20.7,3.6c-3,0.7-93.9,17.2-111.6,24.3
					c-1.4,1.9,7.4-1.2,8.8-0.7c1.2,0.2,0.2,1.4-1.5,2c-12,3.6-20.9,7.9-20.9,7.9s-22.3,11-21,12.9c1.3,1.9,36.7-11.6,42.1-13.6
					c5.4-2,53.5-15.2,63.4-17.4c9.9-2.2,32.6-6.9,39.3-8.1c21.8-3.7,52-6,50.4-5.9c9.8-0.4,38.4-1.8,59.1-8.3
					C269.2,110.8,261.8,110.1,259.5,110.2z"/>
			</g>
		</g>
	</g>
	<g id="bleu_x5F_jaune_00000158711541807887269490000011972636418212756621_">
		<g id="Coeur_copy_3_00000080905432902009621080000012865460723877044379_">
			<g>
				<path class="st0" d="M112.7,100.7c-0.1,0.1-0.1,0.1-0.2,0.2C112.6,100.8,112.7,100.7,112.7,100.7z M131.9,64.2
					c-0.7,0-1.6,5.1-7.8,10.9c-5.8,5.3-11.7,11-14.7,10.4c0,0-19.9-6-26.9-27.5c-0.6-1.8-0.4-3,0.4-5.8c0.9-3.2,3.5-5.9,6.9-7.2
					c6.6-2.6,11.2-0.8,21.6,4.8c5.7-0.4,10.1-11.4,7.6-15.2s-18.6-6.6-20-6.6c-13.4,0-17.3,4.3-20.8,10.6
					c-4.6,8.2-0.7,22.1-0.5,23.1c0.1,1,6.4,13.9,7.1,15c5.6,9.2,15.2,16.9,16.1,17.9c2.8,3.1,6.2,5.2,7.3,5.8
					c2.6,1.4,5.4-0.3,4.7,0.3c11.4-8.3,16-15.9,17.9-19.8C132.6,76.9,134.2,64.2,131.9,64.2z"/>
			</g>
		</g>
		<g id="Coeur_2_copy_3_00000075880733250986887500000001830339674840805025_">
			<g>
				<path class="st1" d="M136.1,86.6c-0.5,0-1,2.6-2.3,4.4c-1.6,2.2-18.2,17-19.9,16.3c-1.8-0.7-19.9-6.1-26.8-23.6
					c-2.3-5.9-2-15.2,6.9-16.4c3.7-0.5,4.2-2,20.8,4.8c5.7-0.4,9.1-9.5,6.6-13.3c-2.5-3.8-15.5-6.6-19-6.9
					c-3.6-0.3-11.1,0.8-14.3,2.5c-3.4,1.9-4.7,2.5-8,7.9c-4.8,8.1-2.9,19.3,0.2,26.6c3.1,7.3,22.5,34.8,37.1,34.4
					c1.6-0.8,14.4-10,19.5-28.7C136.2,97.2,137.9,86.6,136.1,86.6z M137,94.7c0-0.1,0.1-0.3,0.2-0.5C137.1,94.4,137,94.6,137,94.7z"
					/>
			</g>
		</g>
		<g id="M1_copy_3_00000175320864890660542410000011752014743645069447_">
			<g>
				<path class="st1" d="M187.2,25.1c-10.1,0.3-22.3,13.6-28.3,25.1c-2-0.2-0.1-3.3-1.3-9.8c-1.2-6.3-6-12.6-10.5-13.5
					c-5.8-1.2-17.1,1.6-24.6,7.1c2.3,5.1-2.8,9.3-4.7,15.5c2.4-1.6,9.8-10.6,18.6-9c12.7,2.3,10.7,25,6.4,40.2
					c1.5-0.5,15.6-16.9,16.5-18c0.9-1.1,7.4-6.6,10.8-5.6c9.3,2.8-7.4,42.6-6.6,43.3c2.7-0.2,3.2-1,4.4-2c8-10.8,18-35.7,19.5-39.5
					C198.5,29.8,191.4,25,187.2,25.1z"/>
			</g>
		</g>
		<g id="M2_copy_3_00000089574173876467708040000017380844791428043398_">
			<g>
				<path class="st1" d="M251.6,16.7c-8.1-1.3-19.9,6.8-32.7,30.5c-0.5-0.5-1.1-6.8-2.3-13.3c-1.2-6.3-2.9-10.2-5.9-10.8
					c-2.2-0.4-4.3-0.8-7.1,0.4c-1.9,0.7-5.8,3-7.5,4.5c1,5.1,4.6,7.2-15.7,59.7c2.4-1.6,19.8-30.4,24.4-39.5
					c11.1,2.2,4.9,21.7,4.4,26c1.5-0.5,14.4-17.1,15.4-18.2s7.2-6.9,10.6-5.9c8.8,2.6-10.3,41.4-9.5,42.2c2.6-0.1,3.9-0.8,5.8-2.6
					c8-10.8,19.1-32.6,21.1-37.9C264.2,21.6,254.4,17.2,251.6,16.7z"/>
			</g>
		</g>
		<g id="J_copy_3_00000134957714996843692220000016166577300146707086_">
			<g>
				<path class="st1" d="M55.6,33.4c-2.4-0.1-4.7,1.4-5.3,1.7c15.2,17.4,1,74.8-19.7,77.3c-8.9-14.8-0.7-32.3-0.3-33.8
					c0-1.9-2-3.5-5-3.3c-8.5,0.5-17.5,15.3-14.8,31.1c2.2,13.2,16,21,28.6,19.9c20.5-1.7,32.7-34.1,34-53.5
					C74.4,51.3,67.9,34.3,55.6,33.4z M50.3,35.1c0,0-0.1-0.1-0.1-0.1C50,35.3,50.1,35.3,50.3,35.1z"/>
			</g>
		</g>
	</g>
</g>
</svg>
