<?xml version="1.0" encoding="UTF-8"?>
<svg id="Calque_2" data-name="Calque 2" xmlns="http://www.w3.org/2000/svg" viewBox="0 0 795.23 201.78">
  <g id="Calque_1-2" data-name="Calque 1">
    <g>
      <path fill="currentColor" d="M95.06,0h24.21v156.94h-24.21v-16.14c-9.12,12.7-22.2,19.05-39.23,19.05-15.4,0-28.55-5.72-39.46-17.15C5.45,131.27,0,117.33,0,100.89s5.45-30.56,16.37-41.93c10.91-11.36,24.06-17.04,39.46-17.04,17.04,0,30.12,6.28,39.23,18.83V0ZM34.3,126.56c6.72,6.8,15.17,10.2,25.33,10.2s18.61-3.4,25.34-10.2c6.72-6.8,10.09-15.36,10.09-25.67s-3.36-18.87-10.09-25.67c-6.73-6.8-15.17-10.2-25.34-10.2s-18.61,3.4-25.33,10.2c-6.73,6.8-10.09,15.36-10.09,25.67s3.36,18.87,10.09,25.67Z"/>
      <path fill="currentColor" d="M223.08,44.84h24.21v112.1h-24.21v-14.35c-7.32,11.51-18.91,17.26-34.75,17.26-12.86,0-23.24-4.11-31.16-12.33-7.92-8.22-11.88-19.5-11.88-33.85V44.84h24.21v66.36c0,8.37,2.24,14.8,6.73,19.28,4.48,4.49,10.61,6.73,18.38,6.73,8.52,0,15.39-2.65,20.63-7.96,5.23-5.31,7.85-13.41,7.85-24.33v-60.09Z"/>
      <path fill="currentColor" d="M364.32,44.84h24.21v156.94h-24.21v-60.76c-9.12,12.56-22.2,18.83-39.23,18.83-15.4,0-28.55-5.68-39.46-17.04-10.91-11.36-16.37-25.33-16.37-41.93s5.45-30.38,16.37-41.81c10.91-11.43,24.06-17.15,39.46-17.15,17.04,0,30.12,6.35,39.23,19.05v-16.14ZM303.57,126.56c6.72,6.8,15.17,10.2,25.33,10.2s18.61-3.4,25.34-10.2c6.72-6.8,10.09-15.36,10.09-25.67s-3.36-18.87-10.09-25.67c-6.73-6.8-15.17-10.2-25.34-10.2s-18.61,3.4-25.33,10.2c-6.73,6.8-10.09,15.36-10.09,25.67s3.36,18.87,10.09,25.67Z"/>
      <path fill="currentColor" d="M505.57,44.84h24.21v156.94h-24.21v-60.76c-9.12,12.56-22.2,18.83-39.23,18.83-15.4,0-28.55-5.68-39.46-17.04-10.91-11.36-16.37-25.33-16.37-41.93s5.45-30.38,16.37-41.81c10.91-11.43,24.06-17.15,39.46-17.15,17.04,0,30.12,6.35,39.23,19.05v-16.14ZM444.81,126.56c6.72,6.8,15.17,10.2,25.33,10.2s18.61-3.4,25.34-10.2c6.72-6.8,10.09-15.36,10.09-25.67s-3.36-18.87-10.09-25.67c-6.73-6.8-15.17-10.2-25.34-10.2s-18.61,3.4-25.33,10.2c-6.73,6.8-10.09,15.36-10.09,25.67s3.36,18.87,10.09,25.67Z"/>
      <path fill="currentColor" d="M633.58,44.84h24.21v112.1h-24.21v-14.35c-7.32,11.51-18.91,17.26-34.75,17.26-12.86,0-23.24-4.11-31.16-12.33-7.92-8.22-11.88-19.5-11.88-33.85V44.84h24.21v66.36c0,8.37,2.24,14.8,6.73,19.28,4.48,4.49,10.61,6.73,18.38,6.73,8.52,0,15.39-2.65,20.63-7.96,5.23-5.31,7.85-13.41,7.85-24.33v-60.09Z"/>
      <path fill="currentColor" d="M705.1,111.2c1.79,8.52,5.9,15.06,12.33,19.62,6.42,4.56,14.27,6.84,23.54,6.84,12.85,0,22.49-4.63,28.92-13.9l19.95,11.66c-11.06,16.29-27.43,24.44-49.1,24.44-18.24,0-32.96-5.56-44.17-16.7-11.21-11.13-16.81-25.22-16.81-42.26s5.53-30.75,16.59-42.04c11.06-11.28,25.26-16.93,42.6-16.93,16.44,0,29.93,5.75,40.47,17.26,10.54,11.51,15.81,25.48,15.81,41.93,0,2.54-.3,5.91-.9,10.09h-89.23ZM704.88,91.47h65.91c-1.65-9.11-5.42-15.99-11.32-20.63-5.91-4.63-12.82-6.95-20.74-6.95-8.97,0-16.44,2.47-22.42,7.4-5.98,4.93-9.79,11.66-11.43,20.18Z"/>
    </g>
  </g>
</svg>