<?xml version="1.0" encoding="UTF-8"?>
<svg xmlns="http://www.w3.org/2000/svg" version="1.1" viewBox="0 0 535 213.4">
  <defs>
    <style>
      .cls-1 {
        fill: #fd730d;
      }
    </style>
  </defs>
  <!-- Generator: Adobe Illustrator 28.6.0, SVG Export Plug-In . SVG Version: 1.2.0 Build 709)  -->
  <g>
    <g id="Calque_1">
      <g id="Calque_1-2" data-name="Calque_1">
        <g>
          <path class="cls-1" d="M136.1,77c-.4-.7-.9-1.7-1.6-2.7-7.9-10.9-27.4-13.6-41.8-7.6-2,.8-19.8,8.4-19.2,19.8.5,10.4,15.7,17,25.8,18.1,11.7,1.3,20-4.5,21.7-6,2.4-2.1,3.3-4.6,3.3-4.6.4-1.2.6-2.2.6-2.9,0,.5-.3,3.7-3.1,5.9-2,1.5-4.7,2.2-7,1.4-3.6-1.2-2.9-4.8-6.9-8-3-2.5-7.5-3.7-11.4-3.1-5.1.8-6.7,4.4-9.9,3.4-2.3-.7-3.9-3.3-4.1-5.6-.8-6.3,8.8-12.7,15.1-15.5,12-5.2,27.8-3.6,36.6,5.2.9.9,1.6,1.7,2,2.3h0Z"/>
          <path class="cls-1" d="M86.5,83.1c0,0,4.7-5.7,12.3-7.8,10.4-3,25,1.4,28.3,10.8.2.7,1.3,3.7.3,7.6-1.9,8-10.8,14.1-22.4,15.3,13.7.7,25.3-4.7,29.9-14,.8-1.7,3.1-6.2,1.6-11-3.3-10.9-23.7-16.1-37.5-10.5-7.8,3.2-12.7,9.5-12.6,9.6h0Z"/>
          <path d="M170.6,71c8.7,0,15.2,6.9,15.1,15.3.1,8.4-6.4,15.4-15.1,15.3-8.7,0-15.2-6.9-15.1-15.3-.1-8.4,6.4-15.4,15.1-15.3ZM170.6,74.4c-6.6,0-11.2,5.1-11.2,11.9s4.6,11.9,11.2,11.9,11.2-5.1,11.2-11.9-4.6-11.9-11.2-11.9Z"/>
          <path d="M203.6,101.6c-3.6,0-6.6-1.8-7.9-4.5v12.3h-3.5v-29.7h3.5v3.9c1.3-2.7,4.3-4.5,7.9-4.5,5.8,0,10.1,4.7,10.1,11.2s-4.3,11.2-10.1,11.2h0ZM208,84.7c-1.3-1.5-3.1-2.2-5.2-2.2s-3.9.8-5.3,2.2c-1.3,1.5-2,3.4-2,5.7s.7,4.2,2,5.7,3.1,2.2,5.3,2.2,3.9-.8,5.2-2.2c1.3-1.5,2-3.4,2-5.7s-.7-4.2-2-5.7Z"/>
          <path d="M220.9,82.8h-4.2v-3h4.2v-6.3h3.5v6.3h6.7v3h-6.7v12.5c0,2.1,1.1,2.9,3.4,2.9s2.1,0,3.3-.4v2.9c-1.2.4-2.5.5-3.8.5-4.2,0-6.5-2-6.5-5.8v-12.8.2Z"/>
          <path d="M238.4,73.4c1.4,0,2.4,1.1,2.4,2.4s-1.1,2.4-2.4,2.4-2.4-1.1-2.4-2.4,1.1-2.4,2.4-2.4ZM236.6,82.7h3.5v18.3h-3.5v-18.3Z"/>
          <path d="M248.9,83.9h-2.8l2.1-10.4h3.6l-2.9,10.4h0Z"/>
          <path d="M289.7,101h-3.5v-12.9c0-4-1.3-5.7-4.5-5.7s-6.2,2.4-6.2,5.9v12.7h-3.5v-12.9c0-4-1.3-5.7-4.5-5.7s-6.2,2.4-6.2,5.9v12.7h-3.5v-21.3h3.5v3.6c1.2-2.7,3.8-4.2,7-4.2s5.6,1.6,6.6,4.4c1.1-2.7,4-4.4,7.5-4.4s7.3,2.9,7.3,8.2v13.7h0Z"/>
          <path d="M299.2,91.5c.4,4.2,3.2,6.9,7.4,6.9s5-1.1,6.8-3.3l2.4,2c-2.1,2.9-5.3,4.6-9.3,4.6-6.4,0-10.9-4.6-10.9-11.2s4.4-11.3,10.6-11.3,10.1,4.2,10.1,10.4,0,1.3-.1,1.9h-17ZM312.7,88.6c-.3-3.9-2.8-6.2-6.5-6.2s-6.3,2.4-6.9,6.2h13.5-.1Z"/>
          <path d="M340.8,101h-3.5v-12.8c0-4-1.5-5.8-4.9-5.8s-6.6,2.4-6.6,5.9v12.7h-3.5v-21.3h3.5v3.6c1.2-2.7,3.9-4.2,7.4-4.2s7.6,3,7.6,8.2v13.6h0Z"/>
          <path d="M349.5,82.8h-4.2v-3h4.2v-6.3h3.5v6.3h6.7v3h-6.7v12.5c0,2.1,1.1,2.9,3.4,2.9s2.1,0,3.3-.4v2.9c-1.2.4-2.5.5-3.8.5-4.2,0-6.5-2-6.5-5.8v-12.8.2Z"/>
          <path d="M384.8,79.7v21.3h-3.5v-3.9c-1.2,2.7-4.3,4.5-7.9,4.5-5.8,0-10.1-4.7-10.1-11.2s4.3-11.2,10.1-11.2,6.6,1.8,7.9,4.5v-3.9h3.5ZM379.4,84.7c-1.3-1.5-3.1-2.2-5.2-2.2s-3.9.8-5.3,2.2c-1.3,1.5-2,3.4-2,5.7s.7,4.2,2,5.7,3.1,2.2,5.3,2.2,3.9-.8,5.2-2.2c1.3-1.5,2-3.4,2-5.7s-.7-4.2-2-5.7Z"/>
          <path d="M392.4,73.4h3.5v27.6h-3.5v-27.6Z"/>
          <path d="M268.7,118.6c4,0,7.2,1.8,8.8,4.9l-1.2.7c-1.3-2.7-4.2-4.3-7.6-4.3-5.3,0-9.1,3.9-9.1,9.7s3.8,9.8,9.1,9.8,6.3-1.6,7.6-4.3l1.2.7c-1.6,3.2-4.8,4.9-8.8,4.9-6.4,0-10.6-4.6-10.6-11.1s4.2-11.1,10.6-11.1h0Z"/>
          <path d="M292.7,118.6c6.4,0,10.6,4.7,10.6,11.1s-4.3,11.1-10.6,11.1-10.7-4.7-10.7-11.1,4.2-11.1,10.7-11.1ZM292.7,120c-5.4,0-9.2,4-9.2,9.7s3.7,9.8,9.2,9.8,9.1-4,9.1-9.8-3.8-9.7-9.1-9.7Z"/>
          <path d="M327.4,140.2h-1.4v-12.7c0-5-2.1-7.5-6.5-7.5s-4.3.7-5.8,2.1-2.3,3.3-2.3,5.8v12.4h-1.4v-21.1h1.4v4.8c1.1-3.3,4.2-5.3,8.3-5.3s7.7,2.9,7.7,8.7v13-.2Z"/>
          <path d="M334.5,135.6c1.5,2.5,4.2,3.8,7.8,3.8s6.3-1.8,6.3-4.6-1.3-3.3-4.7-4.1l-4.2-1c-3.7-.9-5.4-2.6-5.4-5.3s2.9-5.8,7.8-5.8,6.4,1.3,7.8,3.6l-1.1.8c-1.3-2.1-3.5-3.1-6.7-3.1s-6.3,1.6-6.3,4.5,1.3,3.2,4.7,4l4.3,1c3.7.9,5.3,2.6,5.3,5.3s-2.9,6.1-7.7,6.1-7.4-1.7-8.9-4.4l1.1-.8h0Z"/>
          <path d="M355.9,119.1h1.4v13.1c0,4.7,2.7,7.2,7.2,7.2s7.2-2.5,7.2-7.2v-13.1h1.4v13.2c0,5.4-3.2,8.5-8.6,8.5s-8.7-3.1-8.7-8.5v-13.2h.1Z"/>
          <path d="M381,112.8h1.4v27.5h-1.4v-27.5Z"/>
          <path d="M392.4,120.4h-4.8v-1.3h4.8v-6.4h1.4v6.4h7.4v1.3h-7.4v15c0,2.7,1.4,3.9,4.2,3.9s2.1-.1,3.2-.4v1.2c-1.1.3-2.1.5-3.3.5-3.7,0-5.6-1.7-5.6-5.1v-15h0Z"/>
          <path d="M407.7,112.8c.7,0,1.3.5,1.3,1.3s-.5,1.3-1.3,1.3-1.3-.5-1.3-1.3.5-1.3,1.3-1.3ZM407,119.1h1.4v21.1h-1.4v-21.1Z"/>
          <path d="M434.1,140.2h-1.4v-12.7c0-5-2.1-7.5-6.5-7.5s-4.3.7-5.8,2.1-2.3,3.3-2.3,5.8v12.4h-1.4v-21.1h1.4v4.8c1.1-3.3,4.2-5.3,8.3-5.3s7.7,2.9,7.7,8.7v13-.2Z"/>
          <path d="M461.6,119.1v19.1c0,6.9-4,11-10.7,11s-7.4-1.5-9.4-4l.9-1c1.9,2.3,5,3.7,8.5,3.7,5.8,0,9.3-3.6,9.3-9.6v-4.2c-1.3,3.9-4.8,6.3-9.2,6.3s-10.3-4.5-10.3-10.8,4.2-10.8,10.3-10.8,7.9,2.4,9.2,6.3v-5.8h1.4v-.2ZM451.2,120c-5.3,0-9,4-9,9.5s3.8,9.5,9,9.5,9-4,9-9.5-3.8-9.5-9-9.5Z"/>
        </g>
      </g>
    </g>
  </g>
</svg>