<?xml version="1.0" encoding="UTF-8"?>
<svg id="Calque_1" data-name="Calque 1" xmlns="http://www.w3.org/2000/svg" viewBox="0 0 899.42 1027.98">
  <defs>
    <style>
      .cls-1 {
        fill: #fff;
      }

      .cls-2 {
        fill: #5f4287;
      }
    </style>
  </defs>
  <path class="cls-2" d="M899.31,223.42c-5,152.2-63.2,318.9-126.1,439.7-135.2,259.5-250.2,343.3-274.5,354.1-24.2,10.8-49.9,17.5-90.4,0-40.5-17.6-155.4-111.2-260.8-304.3S4.21,299.62.21,223.92c-2-36.6,10.1-99.2,55.4-128.4C116.21,56.42,222.71,17.72,308.31,9.02c159.2-16.2,233.8-11.5,369,21.6,31.8,7.8,116.8,38.6,169.4,70.3,54.3,32.8,53.1,105.8,52.6,122.5Z"/>
  <g>
    <path class="cls-1" d="M536.21,507.32c-.2.9-.3,1.8-.6,2.7-.3.9-.6,1.8-1,2.6-.5,1.1-1.2,2.1-2.1,3-.5.4-1,.8-1.6,1.1-1.1.6-2.6,1-4.3,1-.7,0-1.4,0-2.1-.2-.3,0-.6-.1-.8-.1-.5-.1-1-.2-1.4-.2-.9-.2-1.5-.3-2-.4-.3-.1-.5-.1-.7-.2-.7-.2-1.1-.3-1.6-.3-.8,0-1.7.3-5.1,1.3-1.6.4-2.9.6-4,.6-3.1,0-4.5-1.4-5.5-2.6-.3-.3-.5-.6-.7-.8-.1-.1-.1-.2-.2-.2-.1-.2-.3-.3-.4-.6-.3-.4-.6-1-.9-1.6-.2-.3-.3-.6-.5-.9-.7-1.1-1.6-2.2-2.7-2.2-.3,0-.7.1-1.1.3-3,1.7,1.5,4.9,0,7.2-.2.3-.5.6-.8.9-.1.1-.3.3-.4.3-.7.5-1.5.7-2.3.7-.7,0-1.5-.2-2.2-.3-.8-.2-2.5-.6-4.2-.6-2.5,0-4.9.9-3.8,4.8,1.8,6.5,0,9.8-3.7,11.6-1.2.6-2.2.8-3.1.8-2,0-4.1-1.1-8.5-3.3,0,0-35.1-29.1-40.4-32.8-5.3-3.7-20.9-27-22.2-44.5-1-14.1,7.4-23.1,12.2-26.7,1.1-.9,2.1-1.4,2.6-1.7,2.8-1.2,2-.9,5.3-2.4,1.6-.8,4.5-1.1,8-1.1,1.8,0,3.8.1,5.9.3,1,.1,2.1.2,3.1.3s2.1.3,3.1.5c4.9.9,8.6,2.4,11.7,3.5.6.2,1.2.4,1.8.6.5.1,1,.3,1.5.3.6.1,1.2.2,1.7.2h.3s-1.8-7.7,3.3-16.8c.2-.3.3-.6.5-.9,4.6-7.6,9.7-9.9,18.6-10.3.9-.1,1.7-.1,2.7-.1,3.4,0,8.3,2.1,13.6,5.3,11.7,7.3,25.2,20.5,28.7,30.6,5,14.7,6.5,28.7,7,47.6.8,19.2.3,18.6-.7,23.7Z"/>
    <path class="cls-1" d="M522.31,517.12c-.8-.1-1.5-.3-2-.4.6.1,1.2.3,2,.4Z"/>
    <path class="cls-1" d="M520.31,516.72c.5.1,1.2.3,2,.4-.8-.1-1.4-.3-2-.4ZM497.81,534.32c-4.1,3.2-5.9,7.5-6.2,11,3.3-2.7,6.1-6.5,7.4-11.3.9-.3,1.8-.6,2.6-1,2.3.8,4.7,1.1,7.3,1.1s5.5-.4,8.4-1.2h.1c-3.8-1.8-13-3.8-19.6,1.4ZM443.51,531.82c-.6-.3-1.1-.6-1.7-.9,2.6,2.1,5.2,4.3,7.9,6.5-1.6-2.3-3.6-4.2-6.2-5.6Z"/>
    <path class="cls-1" d="M512.11,557.72c-14.4,3.3-18.9-6.5-18.9-6.5-1.2-.8-1.9-3.1-1.7-5.9.3-3.5,2.1-7.9,6.2-11,6.6-5.2,15.8-3.2,19.6-1.3.4.2.8.4,1,.6,2.9,1.9,8.2,20.8-6.2,24.1Z"/>
    <path class="cls-1" d="M520.91,568.12s3.6-15.6,9.2-19.7c5.6-4,20.2-.4,23.8,1.6,3.6,1.9,24.5,13,36.1,31.8,11.5,18.8,20.2,44.5,14.4,62.6s-20.6,23.2-22.2,17.1c-1.6-6.2-2.9-13.4-6.3-17.6s2.3,2.3,2.7,10.9c.4,8.6,2,10.4-1.1,29.2-2.1,12.7-11.7,26.4-17.5,28.3s-10.1.9-15.9,10.2c-5.8,9.3-11.7,15.6-29.4,19-17.7,3.3-36.4-9.3-42.6-20.6s-4.9-15.3-5-17.9.4-4.9-6.3-3.7-16.9,1.9-24-14.1c-7-16-3.6-53.6,9.6-80.2,13.2-26.5,20.9-39.2,28.1-41.7s6.7-1.9,8.8-1.2,5.4,5.1,10.3,3.5,8.1,1.1,9,4.4c.9,3.3,1.3,4.7,5.4,4.6s6.3.4,7.6-.2,4.9.3,5.3-6.3Z"/>
    <path class="cls-1" d="M459.61,805.32c0,7.2-1.4,22.9-16.2,20.7-5.2-.8-6.2-3.5-14.9,0-10.8,4.4-5.9,11.4-20.5,9.3-7-1-7.3-12-6.1-16.3,3.6-12.7,14.9-15.9,6.1-50.9-11.7-46.1-38.1-40.7-74-100.4-15.3-25.4-12.6-42.1-12.9-43.5-1-4.4-1.4-13.8-6.8-8.3-5.4,5.5-15.4,4.5-20.2,4.3s-15.8-7.7-25.2-26.6-5.7-57.7,3.4-63.2c9-5.4,23.5-2,31.9,6.7s15.9,23.6,18.5,31.1,1.4,9.7,4,3.3c2.6-6.4,18.6-42.5,53.6-49.4,33.5-6.5,48.1,1.4,61.4,8.6h0c.6.3,1.1.6,1.7.9,2.6,1.4,4.7,3.3,6.2,5.6l.1.1c6.3,9.4,3.3,24.2-1.8,29.7-6.4,6.8-15.2,7.9-33-1.2-17.8-9.1-34.2-16.2-48.4-6.8-23.5,15.5-27,29.4-28,33.6-1,4.1-1.6,14.6,2.2,9.1s6.4-4.6,13.2-9.7,25-14,29.8-15.5,13.6-.2,17.3,4.9,3.7,18.5,3.5,21.3,1.8,12.7-12.2,23.4c-14,10.7-33.3,8.9-40.4,7-7.2-1.9-6.8,4.1-4.4,10.2,2.4,6,14.1,27,43.3,55.8,15.1,14.9,35.5,37.5,52.7,55.2,17.2,18,16.1,43.8,16.1,51Z"/>
    <path class="cls-1" d="M323.21,290.12c-11.7-12.6-27.2-18.9-46.4-18.9h-113.5v14.9h18.6c2.9,0,5.3,1.2,7.3,3.5s3,5.5,3,9.6v180.3c0,4.3-1,7.6-3,9.9-1.9,2.3-4.9,3.5-8.7,3.5h-17.3v14.9h103.3v-14.9h-22.3c-3.1,0-5.7-1.2-7.7-3.5s-3-5.6-3-9.9v-77.1h35.9c11.2,0,22.5-2.3,33.9-7s20.5-12.2,27.2-22.6c6.8-10.4,10.2-22.5,10.2-36.4.1-18.3-5.8-33.7-17.5-46.3ZM293.81,365.32c-2.8,6.3-7.4,11.6-13.9,15.9-6.5,4.4-14,6.5-22.4,6.5h-24v-90.2c0-4.3,1.2-7.3,3.5-9,2.3-1.8,7.8-2.7,16.4-2.7,15,0,25.5,2.8,31.7,8.5,8.5,7.9,12.7,21.4,12.7,40.6.1,14.1-1.3,24.2-4,30.4Z"/>
    <path class="cls-1" d="M479.51,192.12v14.3h2.8c7.7,0,13.9,3.1,18.4,9.2,4.6,6.2,6.9,15.4,6.9,27.7v96.9c0,11.9-1.5,22.1-4.5,30.5,5.1,1.2,10.6,3.6,16.2,6.8,3.1-9.1,4.6-19.3,4.6-30.5v-105c0-10,2-18.5,5.9-25.3s9.7-10.3,17.2-10.3h5v-14.3h-72.5ZM417.01,209.82c1.5-2.2,3.7-3.3,6.4-3.3h19.4v-14.3h-95.6v14.3h14c4.9,0,8.3,1.1,10.1,3.3,1.9,2.2,2.8,6.3,2.8,12.3v128.1c0,16.7,2.5,30,7.6,40.2,3.9,7.7,9.8,14.4,17.8,19.9,4.5-4.7,9.1-7.9,12.6-9.4l1.4-.6q1.5-.6,4.2-2c4.3-2.1,9.6-3,16.7-3h1.5c-3.6-2.2-6.8-5-9.6-8.3-7.9-9.5-11.8-23.1-11.8-40.9v-126.2c.2-4.6.9-7.9,2.5-10.1Z"/>
    <path class="cls-1" d="M736.01,446.22c-2.9,25.4-11.7,45.5-26.3,60.3-14.6,14.8-32.6,22.2-53.9,22.2-27.6,0-50.7-10.8-69.4-32.3-6.9-8-12.6-16.8-16.9-26.5h0c-7-15.5-10.7-33.2-11-53-.1-1-.1-2.1-.1-3.2,0-37.4,10.8-67.1,32.2-89.5,18.4-19,39.8-28.5,64.4-28.5,9.7,0,18.7,1.7,27,5.1,8.3,3.3,17.2,9.2,26.8,17.4l9.4-22.1h10.1l3.4,89.3h-12.5c-3.9-25.7-11.3-44.8-22.1-57.2-10.8-12.5-23.2-18.7-37.1-18.7-15.3,0-27.9,8.1-37.9,24.1s-15,41.4-15,76c0,36.6,5.5,63.8,16.5,81.6,8.8,13.9,21.8,20.9,38.9,20.9s31.6-7,43.3-20.9c8.4-10.1,14.3-25.1,17.7-44.9h12.5v-.1Z"/>
  </g>
</svg>